<svg width="53" height="48" viewBox="0 0 53 48" fill="none" xmlns="http://www.w3.org/2000/svg">
<path d="M52.0742 29.2744C52.0196 29.1188 51.9259 28.9801 51.8202 28.854C51.6091 28.6049 51.3546 28.396 51.0931 28.2003C50.846 28.0187 50.5963 27.8372 50.3185 27.703C50.0295 27.5579 49.7271 27.4412 49.4338 27.3057C48.525 26.8962 47.5717 26.5924 46.6125 26.3206C45.1428 25.9068 43.6505 25.5766 42.1825 25.157C41.7922 25.0467 41.3923 24.9724 41.0049 24.8526C40.4072 24.6747 39.8935 24.3147 39.3706 23.9913C39.0743 23.8033 38.7572 23.6485 38.4316 23.516C38.0898 23.3743 37.7405 23.2502 37.4055 23.0934C37.7458 23.0207 38.0877 22.9316 38.3966 22.7695C38.2523 22.5485 38.151 22.3048 38.0414 22.0665C37.931 21.8255 37.8023 21.5859 37.6065 21.4011C37.6319 21.3373 37.7311 21.2767 37.6771 21.2031C37.4984 21.0111 37.374 20.7798 37.2416 20.5567C37.1166 20.3387 36.962 20.1376 36.777 19.9657C36.316 19.5301 35.757 19.2113 35.1865 18.9356C34.5807 18.6461 33.9519 18.4072 33.3215 18.1757C32.6284 17.9228 31.9207 17.699 31.2633 17.3623C30.7061 17.082 30.172 16.7428 29.568 16.5649C29.1432 16.4413 28.6972 16.4303 28.259 16.3948C27.9293 16.3668 27.5916 16.3407 27.2831 16.2136C26.9987 16.0975 26.7595 15.8977 26.5531 15.677C26.3488 15.4645 26.1593 15.2371 25.932 15.0474C25.6665 14.8215 25.3799 14.6218 25.0995 14.4147C24.8397 14.226 24.5913 14.0228 24.3382 13.8256C22.6575 12.5046 20.9876 11.1697 19.2636 9.90362C19.0427 9.73695 18.8093 9.58759 18.5821 9.42974C18.3789 9.2856 18.1695 9.14065 18.0155 8.94345C17.8597 8.72651 17.7651 8.47513 17.6323 8.24529C17.412 7.87458 17.1757 7.51333 16.9575 7.14131C16.2981 6.03326 15.7077 4.88146 14.9448 3.8364C14.5684 3.32253 14.148 2.83674 13.6628 2.41901C13.4521 2.23978 13.2427 2.05793 13.0132 1.90188C12.7517 1.72411 12.4645 1.58846 12.1817 1.44742C11.8739 1.30182 11.558 1.16421 11.2221 1.09532C10.4041 0.940081 9.5431 0.96391 8.74763 1.21742C8.11129 1.42882 7.51892 1.74811 6.94597 2.08878C6.80576 2.16746 6.66422 2.24908 6.50742 2.29152C6.34945 2.33348 6.18618 2.3005 6.02589 2.29674C5.9484 2.29381 5.87141 2.30229 5.79442 2.30866C5.52677 2.33315 5.26095 2.37591 4.99746 2.42766C4.33672 2.56119 3.6896 2.75316 3.05425 2.97451C2.41741 3.19553 1.78738 3.459 1.23533 3.84718C0.754966 4.18328 0.340476 4.63202 0.12294 5.17707C0.440363 5.24449 0.761603 5.29477 1.08401 5.33313C1.08401 5.33313 2.48611 5.45817 2.95304 5.48967C3.78103 5.54811 4.61317 5.61031 5.42456 5.79215C5.45825 5.7995 5.49326 5.80636 5.52329 5.82464C5.68192 5.9123 5.81284 6.04076 5.92268 6.18196C6.10405 6.41817 6.23414 6.68816 6.33668 6.96534C6.45864 7.29932 6.54077 7.64718 6.58325 7.99961C6.68367 8.81019 6.4653 9.62942 6.61625 10.4369C6.62516 10.4364 6.62261 10.4365 6.63151 10.436C6.64363 10.2582 6.66418 10.0713 6.75615 9.91422C6.76046 10.0014 6.71881 10.0858 6.73176 10.1728C6.73458 10.212 6.79614 10.2371 6.82451 10.21C6.86566 10.0122 6.89868 9.80763 6.99559 9.62693C7.05283 10.649 6.92357 11.6712 6.73956 12.6754C6.75814 12.656 6.78552 12.6016 6.81787 12.6302C6.82932 12.6646 6.81489 12.7017 6.8129 12.7373C6.73475 13.3298 6.54758 13.9166 6.60067 14.5198C6.67268 14.4036 6.65576 14.2423 6.76312 14.1435C6.79365 14.2779 6.79663 14.4162 6.81173 14.5526C6.82717 14.6726 6.84491 14.8055 6.93435 14.8966C6.96256 14.8246 6.96489 14.7328 7.03425 14.6844C7.03939 14.7994 7.01715 14.9129 7.00405 15.0268C6.99243 15.1305 6.98048 15.2412 7.0291 15.3381C7.06759 15.3024 7.07075 15.2434 7.10526 15.2048C7.14907 15.21 7.13762 15.2963 7.1786 15.2983C7.23767 15.223 7.22274 15.0983 7.31882 15.0518C7.32064 15.2763 7.30322 15.5027 7.33441 15.7261C7.34304 15.7813 7.36097 15.875 7.43961 15.8526C7.50598 16.2537 7.68735 16.638 7.66711 17.0513C7.6608 17.2114 7.59493 17.3623 7.58663 17.5219C7.54116 18.231 7.69814 18.9442 7.99183 19.5906C8.2082 20.0785 8.53708 20.509 8.8998 20.9006C9.06987 21.081 9.23664 21.2666 9.43459 21.4187C9.72829 21.6541 10.0631 21.8549 10.2812 22.1677C10.4483 22.4019 10.5807 22.6579 10.736 22.8995C10.9328 23.2018 11.1359 23.5003 11.3576 23.7857C11.5842 24.0736 11.8173 24.3567 12.0462 24.643C12.4354 25.1327 12.8293 25.6249 13.1252 26.1768C13.466 26.8036 13.7327 27.4652 14.0307 28.1116C14.4493 29.0042 14.8568 29.9071 15.1237 30.8566C15.541 32.3432 15.874 33.8535 16.0937 35.3809C16.1415 35.7476 16.2193 36.1095 16.2799 36.4741C16.3151 36.7004 16.3473 36.9311 16.3516 37.1612C16.355 37.3421 16.2875 37.5175 16.1608 37.6486C15.5195 38.3123 14.8645 38.9639 14.1723 39.5758C13.9992 39.7393 13.7757 39.8288 13.5808 39.9621C13.3959 40.0954 13.384 40.3659 13.2001 40.4962C12.754 40.6188 12.2852 40.5877 11.8273 40.6198C11.5424 40.6198 11.2418 40.6665 10.9718 40.5566C10.591 40.4174 10.2656 40.1324 9.85217 40.0876C9.35962 40.0856 8.94027 40.4817 8.88389 40.9565C9.15291 40.6617 9.5149 40.3717 9.9481 40.469C10.1063 40.471 10.318 40.6422 10.1706 40.794C9.89073 41.1258 9.69689 41.5344 9.72854 41.9772C9.96492 41.7427 10.1311 41.4527 10.3675 41.2202C10.4298 41.3593 10.4673 41.5189 10.591 41.623C10.8877 41.6658 11.1874 41.4517 11.4742 41.5967C11.6977 41.6794 11.9371 41.5928 12.1636 41.5724C12.1636 41.5724 12.19 41.5689 12.2305 41.5642C12.4282 41.5413 12.6275 41.5988 12.7802 41.7246C12.8282 41.7642 12.8778 41.8017 12.932 41.8331C13.2436 41.8546 13.5601 41.8361 13.8677 41.7835C14.1377 41.7281 14.3118 41.4235 14.6065 41.4624C15.3532 41.5422 16.1118 41.6765 16.8615 41.5617C17.0966 41.4086 17.1849 41.1517 17.1839 40.8889C17.1836 40.8073 17.2359 40.7344 17.3153 40.7106C17.5034 40.6543 17.6943 40.6228 17.8941 40.7424C18.2139 40.9339 18.0978 41.3827 18.444 41.4858C18.4578 41.2046 18.4147 41.0301 18.3277 40.7587C18.1734 40.4736 17.8832 40.2151 17.5687 40.1898C17.0662 40.1187 16.637 40.4369 16.1642 40.543C15.8438 40.6276 15.4116 40.8086 15.1514 40.5079C15.0486 40.2423 15.192 39.9757 15.373 39.7821C16.0235 39.0051 16.7932 38.2489 17.5429 37.5552C17.6116 37.4916 17.6745 37.4223 17.7309 37.3478C17.9184 37.1001 18.0949 36.8453 18.2333 36.5667C18.3546 36.3272 18.4333 36.0682 18.469 35.8031C18.5929 34.9593 18.4411 34.1113 18.4048 33.267C18.5788 33.3903 18.6251 33.6263 18.8144 33.7339C18.8068 33.6963 18.7993 33.6593 18.8017 33.6219C18.8417 33.6465 18.8647 33.6888 18.8899 33.7273C18.9382 33.8034 18.978 33.8842 19.0185 33.9649C19.0426 33.9531 19.0776 33.9449 19.0776 33.9121C19.0673 33.8543 19.0272 33.8049 19.0303 33.7448C19.0743 33.7925 19.0995 33.8547 19.1473 33.9001C19.1684 33.9265 19.1997 33.9353 19.2327 33.9236C19.2432 33.8442 19.1423 33.7946 19.1662 33.7113C19.2435 33.7835 19.2688 33.9049 19.3764 33.9456C19.3798 33.872 19.3582 33.7972 19.2986 33.7499C19.3076 33.7442 19.3257 33.7327 19.3348 33.7272C19.3793 33.7742 19.4012 33.8511 19.4723 33.8671C19.4063 33.6273 19.323 33.3912 19.2095 33.1691C19.1913 33.1323 19.1509 33.0884 19.1944 33.0541C19.2286 33.0956 19.254 33.1754 19.3243 33.1488C19.3376 33.0633 19.2775 32.9928 19.2319 32.9273C19.261 32.9151 19.2895 32.9355 19.3114 32.9536C19.3945 33.0306 19.4465 33.1371 19.5401 33.2042C19.5683 33.2319 19.6101 33.1931 19.6039 33.1611C19.6018 33.0943 19.5646 33.0362 19.5329 32.9799C19.5596 32.9725 19.5827 32.9786 19.6021 32.9983C19.6623 33.0522 19.694 33.1283 19.746 33.1891C19.7901 33.1598 19.786 33.1048 19.7919 33.0592C20.0176 33.3414 20.2677 33.6041 20.4883 33.8904C20.518 33.8646 20.5426 33.8308 20.5801 33.8153C20.6194 33.802 20.6457 33.8444 20.6746 33.8621C20.6877 33.8549 20.6903 33.8535 20.7034 33.8463C20.7001 33.776 20.6324 33.7028 20.6889 33.6377C20.7288 33.672 20.7588 33.72 20.8101 33.7402C20.8114 33.6669 20.8112 33.5899 20.7795 33.5223C20.7674 33.4918 20.72 33.458 20.7616 33.4301C20.815 33.4595 20.8547 33.5097 20.9141 33.53C20.935 33.44 20.8635 33.3747 20.7915 33.3364C20.8283 33.2786 20.8828 33.3388 20.9256 33.3561C20.8663 33.0672 20.7128 32.807 20.5343 32.5741C20.5736 32.5305 20.633 32.5685 20.6828 32.5641C20.6672 32.5411 20.6506 32.5195 20.642 32.4942C20.6657 32.5003 20.6924 32.5047 20.7115 32.5231C20.8212 32.6177 20.8754 32.7662 21.0075 32.837C20.9896 32.6585 20.8673 32.5191 20.7716 32.3751C20.7824 32.364 20.7936 32.3534 20.8054 32.3432C20.8519 32.389 20.873 32.4662 20.9435 32.4836C20.9382 32.4072 20.9309 32.3308 20.9377 32.2546C20.985 32.2936 21.005 32.3532 21.0382 32.4032C21.0616 32.3777 21.085 32.3522 21.1087 32.3273C21.1141 32.3367 21.1248 32.3555 21.1302 32.365C21.1501 32.346 21.1763 32.3268 21.1718 32.2961C21.1575 32.2123 21.094 32.1408 21.1048 32.0524C21.197 32.0937 21.2183 32.2107 21.3148 32.2464C21.269 31.8576 21.0623 31.5107 20.9958 31.1268C21.0717 31.0785 21.1675 31.0785 21.2496 31.1124C21.395 31.1665 21.5186 31.2621 21.6543 31.3349C21.8236 31.4316 21.995 31.5279 22.1442 31.6541C22.2382 31.7368 22.3305 31.8297 22.3738 31.9494C22.4216 32.0778 22.3965 32.2185 22.3597 32.3467C22.3149 32.5021 22.2522 32.6555 22.2454 32.8188C22.2396 32.9242 22.3358 33.0057 22.3288 33.1118C22.3273 33.1585 22.2918 33.1929 22.26 33.2234C22.3114 33.2215 22.3803 33.2437 22.3751 33.3068C22.3537 33.4781 22.2391 33.6371 22.2706 33.8142C22.3023 33.8377 22.3295 33.7993 22.3517 33.7812C22.3217 33.9474 22.3222 34.1173 22.3328 34.2853C22.3615 34.6931 22.4503 35.0931 22.5105 35.4968C22.568 35.8817 22.6324 36.3044 22.5267 36.6845C22.3582 37.2903 22.2449 37.891 22.1094 38.5024C22.0158 38.9244 21.8983 39.3409 21.7708 39.7541C21.6674 40.0889 21.5575 40.4217 21.4479 40.7546C21.2362 41.2466 21.1185 41.8413 20.6409 42.1602C20.1817 42.4832 19.7082 42.786 19.2408 43.0969C19.0567 43.2322 18.8414 43.2858 18.6204 43.3231C18.2936 43.3783 18.0133 43.5869 17.8801 43.8855C17.7767 44.1175 17.6956 44.3581 17.6668 44.6122C17.8838 44.3004 17.9848 44.2852 18.1178 44.1011C18.2068 43.918 18.4072 43.8365 18.5883 43.7681C18.7611 43.8375 18.7969 44.1232 19.0229 44.085C19.4719 44.1061 19.6969 43.6493 20.0539 43.4612C19.8953 43.8375 19.6724 44.1826 19.4688 44.5358C19.4105 44.6351 19.3416 44.7281 19.2694 44.819C18.9312 45.2453 18.7522 45.773 18.7545 46.3138C18.7555 46.5433 18.7638 46.7731 18.7703 47.0018L18.8818 46.6472C19.0229 46.109 19.0219 45.7975 19.4371 45.3668C19.6622 45.4332 19.924 45.561 20.1367 45.389C20.511 45.2109 20.3996 44.6867 20.7677 44.5005C21.1738 44.2631 21.2893 43.7892 21.5767 43.4541C22.0717 43.6201 22.4952 44.0649 23.0618 43.9391C23.1221 43.7902 23.1825 43.6413 23.2397 43.4914C23.6856 43.4139 24.2512 43.5155 24.4333 43.9793C24.5908 44.25 24.5795 44.6716 24.9222 44.7923C24.9273 44.0619 24.6429 43.1684 23.8697 42.9168C23.52 42.7549 23.1671 43.0074 22.8143 42.9873C22.5576 42.777 22.2149 42.5516 22.2681 42.1733C22.2855 41.47 22.1597 40.7395 22.4052 40.0624C22.5216 39.6602 22.6928 39.2759 22.8624 38.8934C22.9443 38.7085 23.0265 38.5237 23.1035 38.3368C23.1773 38.1576 23.2377 37.9734 23.2924 37.7876C23.3559 37.5721 23.4313 37.36 23.5181 37.1525C23.5891 36.9826 23.7253 36.8383 23.8341 36.6883C24.0739 36.3573 24.3059 36.0188 24.4886 35.6534C24.6371 35.3672 24.7436 35.0616 24.8221 34.7504C24.8664 34.7704 24.8913 34.8121 24.9157 34.8519C24.9389 34.8902 24.9872 34.902 25.0303 34.8997C25.0156 34.1338 24.8709 33.379 24.7946 32.6183C24.8364 32.6622 24.879 32.7163 24.9427 32.7283C25.0055 32.7179 25.0048 32.6381 25.0159 32.5901C25.0678 32.639 25.1209 32.6926 25.1908 32.7166C25.223 32.7283 25.2602 32.718 25.2776 32.6877C25.1696 32.6291 25.0712 32.5431 25.0121 32.436C25.0655 32.4384 25.1067 32.4791 25.1493 32.5076C25.1795 32.5047 25.2095 32.4977 25.2389 32.4884C25.2434 32.4662 25.2388 32.4449 25.2197 32.4324C25.1686 32.3863 25.0966 32.3552 25.0765 32.2845C25.1704 32.2732 25.2225 32.3741 25.3079 32.3896C25.3431 32.3981 25.3698 32.3702 25.3896 32.3455C25.2557 32.1332 24.9923 32.064 24.8107 31.9027C24.7615 31.8594 24.7154 31.8006 24.7229 31.7323C24.803 31.7223 24.8623 31.7887 24.9381 31.7985C24.9829 31.7971 24.9852 31.743 24.9894 31.7102C24.954 31.6962 24.8954 31.6632 24.9195 31.6198C24.9467 31.6097 24.9754 31.6198 25.0036 31.6226C25.0224 31.5948 25.0378 31.5555 25.0076 31.5298C24.9378 31.4562 24.7957 31.4236 24.7966 31.3041C24.916 31.2288 25.0523 31.1795 25.1935 31.1627C25.3824 31.142 25.5728 31.1711 25.7556 31.2187C26.0448 31.2871 26.307 31.4308 26.573 31.5574C26.7484 31.6475 26.9312 31.7229 27.1043 31.8181C27.2795 31.9136 27.4523 32.0148 27.6353 32.0961C27.7484 32.1435 27.8701 32.1928 27.9958 32.1741C28.1009 32.1562 28.1742 32.0715 28.2326 31.9903C28.3128 31.8739 28.3851 31.751 28.4847 31.649C28.6942 31.4229 28.976 31.2705 29.2737 31.1882C29.6741 31.0774 30.096 31.0742 30.5077 31.1103C31.2628 31.1808 31.9952 31.3851 32.7243 31.5814C33.1438 31.6957 33.5734 31.7677 33.9997 31.8526C34.3425 31.9206 34.6783 32.0183 35.0135 32.1159C35.7126 32.3202 36.4181 32.5476 37.1535 32.5684C37.5416 32.578 37.9342 32.5163 38.2916 32.3635C38.7041 32.555 39.1566 32.6415 39.5738 32.8219C39.8684 32.9464 40.0996 33.1769 40.39 33.3095C40.5375 33.379 40.7009 33.4154 40.8647 33.4141C40.9106 33.4108 40.942 33.3656 40.9462 33.3233C40.955 33.2817 40.9392 33.2316 40.9735 33.1989C41.3597 33.3973 41.7474 33.5927 42.1292 33.799C42.4588 33.9827 42.7697 34.2001 43.1165 34.3534C43.2605 34.3261 43.2889 34.1663 43.3596 34.0639C43.7651 34.2765 44.0977 34.5997 44.5035 34.8121C44.7957 34.9681 45.1377 35.0475 45.4689 34.9923C45.5227 34.8666 45.5442 34.7262 45.6262 34.6134C45.743 34.7224 45.8803 34.808 46.0211 34.8837C46.2757 35.0176 46.5529 35.1268 46.8445 35.1395C46.9926 35.1431 47.1572 35.1025 47.2482 34.9781C47.3514 34.8303 47.3481 34.6405 47.3258 34.4701C47.6089 34.6328 47.8903 34.7984 48.1732 34.9614C48.366 34.864 48.5917 34.8321 48.8039 34.879C49.0167 34.9224 49.2144 35.0142 49.4182 35.0858C49.6047 35.1532 49.7988 35.2043 49.9978 35.2172C50.037 35.2247 50.0527 35.18 50.065 35.1521C50.0979 35.0293 50.0635 34.8997 50.0967 34.7771C50.1053 34.7486 50.1174 34.7159 50.1473 34.7032C50.2827 34.7161 50.411 34.7641 50.5415 34.7992C50.6841 34.8387 50.8416 34.8612 50.9829 34.8044C50.9564 34.726 50.9227 34.6503 50.8784 34.5808C50.7468 34.3697 50.5384 34.219 50.3222 34.0999C50.0491 33.9498 49.756 33.8392 49.4837 33.688C48.5509 33.1999 47.5951 32.7543 46.6797 32.2341C46.4217 32.0889 46.1718 31.9299 45.9053 31.8C45.572 31.6293 45.2291 31.4743 44.9131 31.2732C44.7894 31.195 44.6734 31.1062 44.5561 31.0197C42.712 29.6591 40.8541 28.315 38.9457 27.0426C40.4816 27.2902 42.0086 27.5912 43.5232 27.943C44.9222 28.2702 46.312 28.6368 47.6849 29.0581C48.3938 29.2778 49.1081 29.5055 49.8514 29.5782C49.9054 29.5917 49.9566 29.5445 49.9711 29.4962C49.991 29.4171 49.9615 29.3396 49.95 29.2617C49.9596 29.2525 49.9637 29.2485 49.9733 29.2394C50.3644 29.2959 50.7304 29.4478 51.0997 29.5788C51.4168 29.6931 51.749 29.7812 52.0892 29.7788C52.1406 29.6152 52.1315 29.4352 52.0742 29.2744Z" fill="black"/>
</svg>
