<svg width="52" height="47" viewBox="0 0 52 47" fill="none" xmlns="http://www.w3.org/2000/svg">
<path d="M51.9513 28.2762C51.8967 28.1206 51.8029 27.9819 51.6972 27.8559C51.4862 27.6068 51.2316 27.3978 50.9701 27.2021C50.7231 27.0206 50.4733 26.8391 50.1956 26.7049C49.9065 26.5598 49.6042 26.443 49.3108 26.3076C48.402 25.898 47.4488 25.5942 46.4895 25.3224C45.0199 24.9086 43.5275 24.5784 42.0595 24.1589C41.6693 24.0485 41.2694 23.9742 40.8819 23.8544C40.2842 23.6765 39.7705 23.3166 39.2477 22.9932C38.9513 22.8051 38.6342 22.6504 38.3087 22.5178C37.9669 22.3761 37.6176 22.2521 37.2826 22.0952C37.6229 22.0226 37.9647 21.9334 38.2737 21.7713C38.1293 21.5503 38.0281 21.3066 37.9184 21.0683C37.8081 20.8273 37.6793 20.5877 37.4835 20.4029C37.5089 20.3391 37.6081 20.2785 37.5542 20.2049C37.3755 20.0129 37.2511 19.7816 37.1186 19.5585C36.9937 19.3406 36.839 19.1395 36.654 18.9676C36.1931 18.5319 35.6341 18.2131 35.0636 17.9374C34.4578 17.648 33.8289 17.409 33.1986 17.1775C32.5055 16.9247 31.7978 16.7009 31.1404 16.3641C30.5832 16.0838 30.049 15.7446 29.4451 15.5667C29.0203 15.4431 28.5743 15.4322 28.136 15.3966C27.8063 15.3687 27.4687 15.3426 27.1602 15.2154C26.8758 15.0993 26.6365 14.8995 26.4301 14.6788C26.2259 14.4663 26.0364 14.2389 25.809 14.0492C25.5436 13.8233 25.257 13.6237 24.9766 13.4165C24.7167 13.2278 24.4683 13.0246 24.2153 12.8274C22.5346 11.5065 20.8647 10.1715 19.1407 8.90545C18.9198 8.73878 18.6863 8.58942 18.4592 8.43157C18.2559 8.28743 18.0465 8.14248 17.8925 7.94529C17.7367 7.72834 17.6421 7.47696 17.5094 7.24712C17.289 6.87641 17.0528 6.51516 16.8346 6.14314C16.1752 5.03509 15.5848 3.88329 14.8218 2.83824C14.4455 2.32436 14.025 1.83857 13.5399 1.42085C13.3291 1.24161 13.1197 1.05976 12.8902 0.903707C12.6287 0.725943 12.3415 0.590293 12.0588 0.449254C11.751 0.303647 11.435 0.166039 11.0992 0.0971538C10.2812 -0.0580884 9.42016 -0.0342585 8.62469 0.219253C7.98835 0.430649 7.39598 0.749937 6.82303 1.09061C6.68282 1.16929 6.54128 1.25091 6.38448 1.29336C6.22651 1.33531 6.06324 1.30233 5.90295 1.29857C5.82546 1.29564 5.74847 1.30413 5.67148 1.31049C5.40383 1.33498 5.13801 1.37774 4.87452 1.42949C4.21378 1.56302 3.56666 1.75499 2.93131 1.97634C2.29447 2.19736 1.66444 2.46083 1.11239 2.84901C0.632026 3.18511 0.217536 3.63385 0 4.1789C0.317423 4.24632 0.638663 4.2966 0.961066 4.33496C0.961066 4.33496 2.36317 4.46 2.8301 4.4915C3.65809 4.54994 4.49023 4.61214 5.30162 4.79398C5.33531 4.80133 5.37032 4.80819 5.40035 4.82647C5.55898 4.91413 5.6899 5.04259 5.79974 5.18379C5.98111 5.42 6.1112 5.68999 6.21374 5.96717C6.3357 6.30116 6.41783 6.64902 6.46031 7.00144C6.56073 7.81202 6.34236 8.63125 6.49331 9.43871C6.50222 9.43821 6.49967 9.43835 6.50857 9.43785C6.52069 9.26001 6.54124 9.07316 6.63321 8.91605C6.63752 9.00322 6.59587 9.08762 6.60882 9.17462C6.61164 9.2138 6.6732 9.23894 6.70157 9.21184C6.74272 9.014 6.77574 8.80946 6.87265 8.62876C6.92989 9.65079 6.80063 10.673 6.61662 11.6772C6.6352 11.6578 6.66258 11.6034 6.69493 11.632C6.70638 11.6664 6.69195 11.7035 6.68996 11.7391C6.61181 12.3316 6.42464 12.9185 6.47773 13.5216C6.54974 13.4054 6.53282 13.2441 6.64017 13.1454C6.67071 13.2797 6.67369 13.418 6.68879 13.5545C6.70423 13.6744 6.72197 13.8073 6.81141 13.8984C6.83962 13.8264 6.84195 13.7347 6.91131 13.6862C6.91645 13.8013 6.89421 13.9147 6.88111 14.0287C6.86949 14.1323 6.85754 14.243 6.90616 14.34C6.94465 14.3042 6.94781 14.2453 6.98232 14.2066C7.02613 14.2118 7.01468 14.2982 7.05566 14.3001C7.11473 14.2249 7.0998 14.1002 7.19588 14.0536C7.1977 14.2781 7.18028 14.5045 7.21147 14.728C7.2201 14.7831 7.23803 14.8768 7.31667 14.8545C7.38304 15.2556 7.56441 15.6398 7.54417 16.0531C7.53786 16.2133 7.47199 16.3641 7.46369 16.5237C7.41822 17.2329 7.5752 17.946 7.86889 18.5925C8.08526 19.0804 8.41414 19.5108 8.77686 19.9024C8.94693 20.0828 9.1137 20.2684 9.31165 20.4206C9.60534 20.6559 9.94019 20.8567 10.1582 21.1695C10.3253 21.4037 10.4577 21.6597 10.613 21.9013C10.8098 22.2036 11.0129 22.5022 11.2346 22.7875C11.4613 23.0755 11.6944 23.3585 11.9232 23.6448C12.3125 24.1345 12.7064 24.6267 13.0023 25.1786C13.3431 25.8054 13.6097 26.467 13.9077 27.1135C14.3264 28.006 14.7339 28.9089 15.0007 29.8585C15.418 31.3451 15.7511 32.8553 15.9707 34.3828C16.0185 34.7494 16.0964 35.1113 16.1569 35.476C16.1922 35.7023 16.2243 35.9329 16.2287 36.163C16.2321 36.3439 16.1646 36.5193 16.0379 36.6505C15.3966 37.3141 14.7415 37.9657 14.0494 38.5776C13.8763 38.7411 13.6528 38.8306 13.4579 38.9639C13.273 39.0972 13.2611 39.3677 13.0771 39.4981C12.6311 39.6207 12.1623 39.5895 11.7043 39.6217C11.4195 39.6217 11.1188 39.6684 10.8488 39.5584C10.468 39.4193 10.1426 39.1342 9.72923 39.0894C9.23668 39.0875 8.81733 39.4835 8.76095 39.9583C9.02997 39.6635 9.39196 39.3736 9.82516 39.4709C9.98341 39.4728 10.1951 39.644 10.0477 39.7958C9.76779 40.1276 9.57395 40.5363 9.6056 40.979C9.84198 40.7445 10.0081 40.4545 10.2445 40.222C10.3068 40.3611 10.3444 40.5207 10.468 40.6248C10.7648 40.6676 11.0644 40.4536 11.3513 40.5985C11.5748 40.6812 11.8141 40.5947 12.0406 40.5742C12.0406 40.5742 12.0671 40.5707 12.1075 40.566C12.3053 40.5431 12.5046 40.6006 12.6572 40.7264C12.7053 40.766 12.7549 40.8036 12.8091 40.835C13.1207 40.8564 13.4371 40.8379 13.7447 40.7854C14.0147 40.7299 14.1888 40.4253 14.4835 40.4643C15.2303 40.5441 15.9889 40.6783 16.7386 40.5635C16.9736 40.4105 17.0619 40.1536 17.061 39.8907C17.0607 39.8091 17.113 39.7362 17.1923 39.7125C17.3804 39.6561 17.5713 39.6246 17.7711 39.7443C18.091 39.9358 17.9749 40.3845 18.321 40.4876C18.3349 40.2064 18.2918 40.032 18.2048 39.7605C18.0505 39.4754 17.7602 39.2169 17.4457 39.1916C16.9433 39.1206 16.5141 39.4387 16.0413 39.5448C15.7208 39.6294 15.2886 39.8104 15.0285 39.5098C14.9256 39.2441 15.0691 38.9775 15.2501 38.7839C15.9006 38.0069 16.6703 37.2507 17.4199 36.557C17.4887 36.4934 17.5516 36.4241 17.608 36.3496C17.7955 36.102 17.972 35.8471 18.1104 35.5685C18.2317 35.3291 18.3104 35.07 18.346 34.8049C18.47 33.9611 18.3182 33.1131 18.2818 32.2688C18.4559 32.3921 18.5022 32.6281 18.6915 32.7357C18.6839 32.6982 18.6764 32.6611 18.6787 32.6237C18.7187 32.6484 18.7418 32.6906 18.767 32.7292C18.8153 32.8052 18.8551 32.886 18.8956 32.9667C18.9196 32.9549 18.9547 32.9468 18.9547 32.914C18.9444 32.8562 18.9042 32.8067 18.9074 32.7466C18.9513 32.7943 18.9766 32.8565 19.0244 32.9019C19.0454 32.9283 19.0768 32.9371 19.1098 32.9254C19.1203 32.8461 19.0194 32.7964 19.0433 32.7132C19.1206 32.7853 19.1458 32.9068 19.2535 32.9474C19.2568 32.8738 19.2352 32.799 19.1757 32.7517C19.1846 32.746 19.2027 32.7346 19.2119 32.729C19.2563 32.776 19.2782 32.8529 19.3494 32.8689C19.2834 32.6291 19.2001 32.3931 19.0866 32.1709C19.0683 32.1342 19.028 32.0903 19.0715 32.056C19.1057 32.0974 19.131 32.1773 19.2014 32.1507C19.2147 32.0651 19.1546 31.9946 19.109 31.9291C19.138 31.9169 19.1666 31.9373 19.1885 31.9554C19.2716 32.0325 19.3235 32.1389 19.4171 32.206C19.4453 32.2337 19.4871 32.1949 19.481 32.1629C19.4788 32.0961 19.4417 32.038 19.41 31.9817C19.4367 31.9744 19.4598 31.9804 19.4792 32.0002C19.5394 32.054 19.5711 32.1301 19.623 32.191C19.6672 32.1616 19.663 32.1066 19.669 32.061C19.8947 32.3433 20.1447 32.6059 20.3654 32.8922C20.3951 32.8665 20.4197 32.8327 20.4572 32.8172C20.4964 32.8038 20.5228 32.8462 20.5517 32.864C20.5648 32.8568 20.5674 32.8553 20.5805 32.8481C20.5771 32.7778 20.5095 32.7046 20.566 32.6396C20.6058 32.6738 20.6359 32.7218 20.6871 32.7421C20.6885 32.6688 20.6883 32.5917 20.6566 32.5241C20.6445 32.4936 20.597 32.4598 20.6387 32.4319C20.6921 32.4613 20.7318 32.5116 20.7912 32.5318C20.8121 32.4419 20.7406 32.3766 20.6686 32.3382C20.7054 32.2804 20.7598 32.3407 20.8026 32.358C20.7434 32.069 20.5899 31.8088 20.4114 31.5759C20.4507 31.5323 20.5101 31.5703 20.5599 31.5659C20.5443 31.5429 20.5277 31.5214 20.5191 31.4961C20.5428 31.5021 20.5695 31.5065 20.5886 31.525C20.6983 31.6195 20.7525 31.768 20.8846 31.8389C20.8667 31.6603 20.7444 31.5209 20.6486 31.3769C20.6594 31.3658 20.6707 31.3552 20.6825 31.3451C20.7289 31.3908 20.75 31.468 20.8205 31.4855C20.8152 31.4091 20.8079 31.3327 20.8147 31.2564C20.862 31.2955 20.8821 31.355 20.9153 31.405C20.9387 31.3795 20.9621 31.3541 20.9858 31.3291C20.9911 31.3385 21.0019 31.3573 21.0072 31.3668C21.0271 31.3479 21.0533 31.3286 21.0489 31.2979C21.0346 31.2142 20.971 31.1427 20.9818 31.0542C21.0741 31.0955 21.0953 31.2125 21.1919 31.2483C21.1461 30.8594 20.9393 30.5126 20.8728 30.1286C20.9488 30.0803 21.0445 30.0803 21.1267 30.1143C21.272 30.1683 21.3957 30.264 21.5314 30.3368C21.7006 30.4334 21.872 30.5297 22.0212 30.6559C22.1153 30.7386 22.2076 30.8315 22.2509 30.9512C22.2986 31.0797 22.2736 31.2204 22.2368 31.3485C22.192 31.5039 22.1292 31.6574 22.1224 31.8206C22.1166 31.926 22.2129 32.0075 22.2059 32.1136C22.2044 32.1603 22.1689 32.1947 22.137 32.2253C22.1885 32.2233 22.2573 32.2455 22.2522 32.3087C22.2308 32.4799 22.1161 32.6389 22.1477 32.816C22.1793 32.8395 22.2066 32.8012 22.2288 32.783C22.1988 32.9492 22.1993 33.1191 22.2099 33.2871C22.2386 33.6949 22.3274 34.095 22.3876 34.4987C22.445 34.8836 22.5095 35.3062 22.4038 35.6864C22.2353 36.2921 22.122 36.8928 21.9864 37.5042C21.8928 37.9262 21.7753 38.3427 21.6478 38.7559C21.5445 39.0907 21.4345 39.4235 21.3249 39.7564C21.1132 40.2485 20.9956 40.8431 20.518 41.162C20.0588 41.485 19.5852 41.7879 19.1178 42.0988C18.9337 42.234 18.7184 42.2877 18.4974 42.325C18.1707 42.3801 17.8904 42.5887 17.7572 42.8874C17.6537 43.1193 17.5727 43.3599 17.5438 43.6141C17.7609 43.3022 17.8619 43.287 17.9949 43.1029C18.0838 42.9198 18.2843 42.8383 18.4653 42.7699C18.6382 42.8393 18.674 43.1251 18.9 43.0868C19.349 43.108 19.574 42.6512 19.9309 42.463C19.7724 42.8393 19.5494 43.1844 19.3459 43.5376C19.2876 43.637 19.2186 43.7299 19.1465 43.8208C18.8083 44.2471 18.6293 44.7748 18.6316 45.3156C18.6326 45.5452 18.6408 45.775 18.6474 46.0037L18.7589 45.6491C18.9 45.1108 18.899 44.7993 19.3142 44.3687C19.5392 44.4351 19.801 44.5629 20.0138 44.3908C20.3881 44.2127 20.2766 43.6885 20.6448 43.5024C21.0508 43.2649 21.1664 42.791 21.4538 42.456C21.9488 42.622 22.3722 43.0667 22.9388 42.9409C22.9992 42.792 23.0595 42.6431 23.1168 42.4932C23.5627 42.4157 24.1283 42.5173 24.3103 42.9812C24.4678 43.2518 24.4566 43.6734 24.7992 43.7942C24.8043 43.0637 24.52 42.1702 23.7468 41.9187C23.397 41.7567 23.0442 42.0092 22.6913 41.9891C22.4346 41.7788 22.092 41.5534 22.1452 41.1751C22.1626 40.4718 22.0368 39.7414 22.2822 39.0642C22.3987 38.6621 22.5699 38.2778 22.7394 37.8952C22.8214 37.7104 22.9035 37.5256 22.9805 37.3387C23.0543 37.1594 23.1147 36.9752 23.1695 36.7895C23.233 36.5739 23.3083 36.3618 23.3951 36.1543C23.4662 35.9844 23.6024 35.8402 23.7111 35.6901C23.9509 35.3591 24.183 35.0206 24.3656 34.6552C24.5141 34.3691 24.6207 34.0635 24.6992 33.7522C24.7435 33.7723 24.7683 33.8139 24.7927 33.8537C24.816 33.8921 24.8643 33.9038 24.9074 33.9015C24.8926 33.1356 24.7479 32.3808 24.6716 31.6201C24.7134 31.6641 24.7561 31.7181 24.8198 31.7302C24.8825 31.7197 24.8818 31.6399 24.893 31.5919C24.9449 31.6409 24.998 31.6944 25.0679 31.7184C25.1 31.7302 25.1372 31.7199 25.1546 31.6895C25.0466 31.6309 24.9482 31.5449 24.8891 31.4378C24.9426 31.4402 24.9837 31.4809 25.0264 31.5095C25.0566 31.5065 25.0866 31.4995 25.116 31.4902C25.1205 31.468 25.1158 31.4468 25.0967 31.4342C25.0456 31.3882 24.9736 31.357 24.9535 31.2863C25.0474 31.2751 25.0996 31.3759 25.185 31.3914C25.2202 31.3999 25.2469 31.372 25.2666 31.3474C25.1327 31.135 24.8694 31.0658 24.6877 30.9045C24.6386 30.8613 24.5925 30.8025 24.5999 30.7341C24.6801 30.7241 24.7393 30.7906 24.8151 30.8004C24.86 30.7989 24.8623 30.7449 24.8664 30.712C24.8311 30.698 24.7725 30.665 24.7966 30.6216C24.8238 30.6115 24.8525 30.6216 24.8807 30.6244C24.8994 30.5966 24.9149 30.5573 24.8847 30.5317C24.8148 30.4581 24.6728 30.4254 24.6736 30.3059C24.7931 30.2307 24.9293 30.1814 25.0705 30.1646C25.2595 30.1438 25.4498 30.1729 25.6327 30.2205C25.9219 30.2889 26.1841 30.4326 26.4501 30.5593C26.6254 30.6494 26.8083 30.7248 26.9814 30.82C27.1566 30.9155 27.3293 31.0167 27.5123 31.0979C27.6255 31.1453 27.7471 31.1946 27.8729 31.176C27.9779 31.158 28.0513 31.0733 28.1097 30.9922C28.1898 30.8758 28.2622 30.7529 28.3617 30.6508C28.5713 30.4248 28.853 30.2723 29.1507 30.19C29.5511 30.0792 29.9731 30.0761 30.3847 30.1122C31.1399 30.1827 31.8723 30.3869 32.6014 30.5833C33.0209 30.6975 33.4505 30.7695 33.8767 30.8544C34.2195 30.9225 34.5554 31.0201 34.8906 31.1177C35.5896 31.3221 36.2952 31.5495 37.0306 31.5702C37.4187 31.5798 37.8113 31.5181 38.1687 31.3653C38.5812 31.5568 39.0337 31.6433 39.4508 31.8237C39.7455 31.9483 39.9766 32.1787 40.267 32.3113C40.4145 32.3808 40.578 32.4172 40.7417 32.4159C40.7877 32.4127 40.8191 32.3674 40.8232 32.3252C40.832 32.2835 40.8162 32.2334 40.8506 32.2008C41.2367 32.3991 41.6245 32.5945 42.0063 32.8008C42.3358 32.9845 42.6468 33.2019 42.9936 33.3552C43.1376 33.3279 43.166 33.1681 43.2367 33.0658C43.6422 33.2783 43.9747 33.6015 44.3806 33.8139C44.6728 33.97 45.0148 34.0493 45.346 33.9941C45.3997 33.8684 45.4213 33.728 45.5033 33.6152C45.6201 33.7243 45.7573 33.8098 45.8982 33.8856C46.1527 34.0194 46.43 34.1286 46.7215 34.1413C46.8697 34.1449 47.0343 34.1043 47.1252 33.9799C47.2284 33.8322 47.2251 33.6423 47.2029 33.4719C47.486 33.6347 47.7674 33.8002 48.0503 33.9633C48.2431 33.8658 48.4688 33.834 48.681 33.8808C48.8937 33.9242 49.0915 34.016 49.2953 34.0876C49.4818 34.1551 49.6759 34.2062 49.8749 34.2191C49.914 34.2266 49.9298 34.1818 49.9421 34.1539C49.9749 34.0312 49.9406 33.9016 49.9737 33.779C49.9824 33.7504 49.9945 33.7177 50.0244 33.705C50.1597 33.7179 50.288 33.7659 50.4186 33.801C50.5611 33.8405 50.7186 33.863 50.86 33.8062C50.8334 33.7279 50.7998 33.6521 50.7554 33.5826C50.6239 33.3715 50.4155 33.2209 50.1993 33.1017C49.9261 32.9517 49.6331 32.841 49.3608 32.6898C48.4279 32.2018 47.4722 31.7561 46.5568 31.2359C46.2987 31.0908 46.0488 30.9318 45.7824 30.8018C45.449 30.6311 45.1062 30.4762 44.7901 30.2751C44.6665 30.1969 44.5505 30.1081 44.4332 30.0216C42.589 28.661 40.7311 27.3169 38.8228 26.0444C40.3586 26.2921 41.8857 26.5931 43.4003 26.9449C44.7992 27.272 46.1891 27.6386 47.562 28.0599C48.2708 28.2797 48.9851 28.5074 49.7285 28.58C49.7824 28.5936 49.8337 28.5464 49.8481 28.4981C49.868 28.4189 49.8386 28.3414 49.8271 28.2635C49.8367 28.2543 49.8408 28.2504 49.8504 28.2412C50.2414 28.2978 50.6075 28.4496 50.9768 28.5807C51.2939 28.6949 51.6261 28.7831 51.9662 28.7806C52.0176 28.617 52.0085 28.437 51.9513 28.2762Z" fill="white"/>
</svg>
