<svg width="52" height="48" viewBox="0 0 52 48" fill="none" xmlns="http://www.w3.org/2000/svg">
<path d="M51.8286 29.2744C51.7742 29.1188 51.6809 28.9801 51.5757 28.854C51.3657 28.6049 51.1123 28.396 50.8521 28.2003C50.6062 28.0187 50.3576 27.8372 50.0812 27.703C49.7935 27.5579 49.4926 27.4412 49.2006 27.3057C48.2961 26.8962 47.3473 26.5924 46.3926 26.3206C44.9299 25.9068 43.4446 25.5766 41.9836 25.157C41.5952 25.0467 41.1972 24.9724 40.8116 24.8526C40.2167 24.6747 39.7054 24.3147 39.185 23.9913C38.8901 23.8033 38.5745 23.6485 38.2505 23.516C37.9103 23.3743 37.5627 23.2502 37.2292 23.0934C37.5679 23.0207 37.9081 22.9316 38.2156 22.7695C38.072 22.5485 37.9712 22.3048 37.8621 22.0665C37.7522 21.8255 37.6241 21.5859 37.4292 21.4011C37.4545 21.3373 37.5532 21.2767 37.4996 21.2031C37.3217 21.0111 37.1978 20.7798 37.0661 20.5567C36.9417 20.3387 36.7878 20.1376 36.6037 19.9657C36.1449 19.5301 35.5885 19.2113 35.0207 18.9356C34.4178 18.6461 33.7919 18.4072 33.1645 18.1757C32.4747 17.9228 31.7704 17.699 31.116 17.3623C30.5615 17.082 30.0299 16.7428 29.4288 16.5649C29.006 16.4413 28.5621 16.4303 28.1259 16.3948C27.7978 16.3668 27.4617 16.3407 27.1547 16.2136C26.8717 16.0975 26.6335 15.8977 26.4281 15.677C26.2248 15.4645 26.0362 15.2371 25.8099 15.0474C25.5457 14.8215 25.2605 14.6218 24.9814 14.4147C24.7228 14.226 24.4756 14.0228 24.2237 13.8256C22.551 12.5046 20.8889 11.1697 19.1731 9.90362C18.9533 9.73695 18.7209 9.58759 18.4948 9.42974C18.2925 9.2856 18.0841 9.14065 17.9309 8.94345C17.7758 8.72651 17.6817 8.47513 17.5495 8.24529C17.3302 7.87458 17.0951 7.51333 16.8779 7.14131C16.2216 6.03326 15.634 4.88146 14.8747 3.8364C14.5001 3.32253 14.0817 2.83674 13.5988 2.41901C13.389 2.23978 13.1806 2.05793 12.9522 1.90188C12.692 1.72411 12.4061 1.58846 12.1247 1.44742C11.8183 1.30182 11.5039 1.16421 11.1697 1.09532C10.3555 0.940081 9.49856 0.96391 8.70685 1.21742C8.07352 1.42882 7.48395 1.74811 6.91371 2.08878C6.77416 2.16746 6.63329 2.24908 6.47723 2.29152C6.32001 2.33348 6.15751 2.3005 5.99798 2.29674C5.92085 2.29381 5.84423 2.30229 5.7676 2.30866C5.50122 2.33315 5.23666 2.37591 4.97441 2.42766C4.3168 2.56119 3.67273 2.75316 3.04039 2.97451C2.40657 3.19553 1.77951 3.459 1.23007 3.84718C0.751977 4.18328 0.339447 4.63202 0.12294 5.17707C0.438862 5.24449 0.758583 5.29477 1.07946 5.33313C1.07946 5.33313 2.47493 5.45817 2.93965 5.48967C3.76373 5.54811 4.59193 5.61031 5.39949 5.79215C5.43302 5.7995 5.46786 5.80636 5.49776 5.82464C5.65563 5.9123 5.78593 6.04076 5.89526 6.18196C6.07576 6.41817 6.20524 6.68816 6.3073 6.96534C6.42868 7.29932 6.51042 7.64718 6.5527 7.99961C6.65265 8.81019 6.43531 9.62942 6.58555 10.4369C6.59442 10.4364 6.59187 10.4365 6.60074 10.436C6.61279 10.2582 6.63325 10.0713 6.72478 9.91422C6.72907 10.0014 6.68762 10.0858 6.7005 10.1728C6.70331 10.212 6.76458 10.2371 6.79282 10.21C6.83378 10.0122 6.86664 9.80763 6.96309 9.62693C7.02006 10.649 6.89142 11.6712 6.70827 12.6754C6.72676 12.656 6.75401 12.6016 6.78622 12.6302C6.79761 12.6646 6.78324 12.7017 6.78126 12.7373C6.70348 13.3298 6.5172 13.9166 6.57004 14.5198C6.64171 14.4036 6.62487 14.2423 6.73172 14.1435C6.7621 14.2779 6.76508 14.4162 6.7801 14.5526C6.79546 14.6726 6.81313 14.8055 6.90214 14.8966C6.93022 14.8246 6.93253 14.7328 7.00156 14.6844C7.00669 14.7994 6.98455 14.9129 6.97151 15.0268C6.95995 15.1305 6.94805 15.2412 6.99644 15.3381C7.03476 15.3024 7.03789 15.2434 7.07225 15.2048C7.11584 15.21 7.10445 15.2963 7.14524 15.2983C7.20403 15.223 7.18917 15.0983 7.28479 15.0518C7.28661 15.2763 7.26926 15.5027 7.30031 15.7261C7.3089 15.7813 7.32674 15.875 7.40502 15.8526C7.47107 16.2537 7.65158 16.638 7.63143 17.0513C7.62516 17.2114 7.55959 17.3623 7.55134 17.5219C7.50609 18.231 7.66232 18.9442 7.95462 19.5906C8.16997 20.0785 8.49729 20.509 8.8583 20.9006C9.02757 21.081 9.19354 21.2666 9.39056 21.4187C9.68287 21.6541 10.0161 21.8549 10.2331 22.1677C10.3994 22.4019 10.5312 22.6579 10.6858 22.8995C10.8817 23.2018 11.0838 23.5003 11.3044 23.7857C11.53 24.0736 11.762 24.3567 11.9898 24.643C12.3772 25.1327 12.7693 25.6249 13.0637 26.1768C13.4029 26.8036 13.6683 27.4652 13.9649 28.1116C14.3816 29.0042 14.7872 29.9071 15.0527 30.8566C15.4681 32.3432 15.7995 33.8535 16.0182 35.3809C16.0657 35.7476 16.1432 36.1095 16.2035 36.4741C16.2386 36.7004 16.2705 36.9311 16.2749 37.1612C16.2783 37.3421 16.2111 37.5175 16.085 37.6486C15.4467 38.3123 14.7948 38.9639 14.1059 39.5758C13.9336 39.7393 13.7111 39.8288 13.5172 39.9621C13.3331 40.0954 13.3213 40.3659 13.1382 40.4962C12.6943 40.6188 12.2277 40.5877 11.7719 40.6198C11.4884 40.6198 11.1892 40.6665 10.9205 40.5566C10.5415 40.4174 10.2176 40.1324 9.80616 40.0876C9.31594 40.0856 8.89857 40.4817 8.84246 40.9565C9.11022 40.6617 9.47049 40.3717 9.90164 40.469C10.0591 40.471 10.2698 40.6422 10.1231 40.794C9.84455 41.1258 9.65162 41.5344 9.68312 41.9772C9.91838 41.7427 10.0837 41.4527 10.319 41.2202C10.381 41.3593 10.4184 41.5189 10.5415 41.623C10.8368 41.6658 11.1351 41.4517 11.4205 41.5967C11.643 41.6794 11.8812 41.5928 12.1066 41.5724C12.1066 41.5724 12.133 41.5689 12.1732 41.5642C12.3701 41.5413 12.5684 41.5988 12.7203 41.7246C12.7681 41.7642 12.8175 41.8017 12.8715 41.8331C13.1815 41.8546 13.4965 41.8361 13.8027 41.7835C14.0714 41.7281 14.2447 41.4235 14.538 41.4624C15.2812 41.5422 16.0362 41.6765 16.7824 41.5617C17.0163 41.4086 17.1042 41.1517 17.1033 40.8889C17.103 40.8073 17.155 40.7344 17.234 40.7106C17.4212 40.6543 17.6112 40.6228 17.81 40.7424C18.1284 40.9339 18.0128 41.3827 18.3573 41.4858C18.3711 41.2046 18.3282 41.0301 18.2416 40.7587C18.088 40.4736 17.7992 40.2151 17.4862 40.1898C16.9861 40.1187 16.5589 40.4369 16.0884 40.543C15.7694 40.6276 15.3393 40.8086 15.0804 40.5079C14.978 40.2423 15.1207 39.9757 15.3009 39.7821C15.9483 39.0051 16.7144 38.2489 17.4605 37.5552C17.5289 37.4916 17.5915 37.4223 17.6476 37.3478C17.8343 37.1001 18.0099 36.8453 18.1477 36.5667C18.2684 36.3272 18.3467 36.0682 18.3822 35.8031C18.5056 34.9593 18.3545 34.1113 18.3183 33.267C18.4915 33.3903 18.5376 33.6263 18.726 33.7339C18.7185 33.6963 18.711 33.6593 18.7133 33.6219C18.7531 33.6465 18.7761 33.6888 18.8012 33.7273C18.8492 33.8034 18.8889 33.8842 18.9292 33.9649C18.9531 33.9531 18.988 33.9449 18.988 33.9121C18.9777 33.8543 18.9378 33.8049 18.9409 33.7448C18.9847 33.7925 19.0098 33.8547 19.0573 33.9001C19.0783 33.9265 19.1095 33.9353 19.1424 33.9236C19.1528 33.8442 19.0524 33.7946 19.0762 33.7113C19.1531 33.7835 19.1782 33.9049 19.2854 33.9456C19.2887 33.872 19.2672 33.7972 19.2079 33.7499C19.2169 33.7442 19.2349 33.7327 19.244 33.7272C19.2882 33.7742 19.31 33.8511 19.3809 33.8671C19.3151 33.6273 19.2322 33.3912 19.1193 33.1691C19.1011 33.1323 19.061 33.0884 19.1042 33.0541C19.1382 33.0956 19.1635 33.1754 19.2335 33.1488C19.2468 33.0633 19.187 32.9928 19.1416 32.9273C19.1705 32.9151 19.1989 32.9355 19.2207 32.9536C19.3034 33.0306 19.3551 33.1371 19.4482 33.2042C19.4763 33.2319 19.5179 33.1931 19.5118 33.1611C19.5097 33.0943 19.4727 33.0362 19.4411 32.9799C19.4677 32.9725 19.4907 32.9786 19.51 32.9983C19.5699 33.0522 19.6015 33.1283 19.6532 33.1891C19.6971 33.1598 19.693 33.1048 19.6989 33.0592C19.9235 33.3414 20.1724 33.6041 20.392 33.8904C20.4216 33.8646 20.446 33.8308 20.4834 33.8153C20.5225 33.802 20.5487 33.8444 20.5774 33.8621C20.5905 33.8549 20.5931 33.8535 20.6061 33.8463C20.6028 33.776 20.5354 33.7028 20.5917 33.6377C20.6313 33.672 20.6612 33.72 20.7123 33.7402C20.7136 33.6669 20.7134 33.5899 20.6819 33.5223C20.6698 33.4918 20.6226 33.458 20.664 33.4301C20.7172 33.4595 20.7567 33.5097 20.8158 33.53C20.8366 33.44 20.7654 33.3747 20.6938 33.3364C20.7304 33.2786 20.7846 33.3388 20.8272 33.3561C20.7682 33.0672 20.6155 32.807 20.4378 32.5741C20.4769 32.5305 20.536 32.5685 20.5856 32.5641C20.5701 32.5411 20.5536 32.5195 20.545 32.4942C20.5686 32.5003 20.5952 32.5047 20.6142 32.5231C20.7233 32.6177 20.7773 32.7662 20.9088 32.837C20.8909 32.6585 20.7692 32.5191 20.6739 32.3751C20.6847 32.364 20.6959 32.3534 20.7076 32.3432C20.7539 32.389 20.7748 32.4662 20.845 32.4836C20.8397 32.4072 20.8325 32.3308 20.8393 32.2546C20.8863 32.2936 20.9063 32.3532 20.9393 32.4032C20.9626 32.3777 20.9859 32.3522 21.0095 32.3273C21.0148 32.3367 21.0255 32.3555 21.0308 32.365C21.0506 32.346 21.0767 32.3268 21.0723 32.2961C21.0581 32.2123 20.9948 32.1408 21.0056 32.0524C21.0974 32.0937 21.1185 32.2107 21.2146 32.2464C21.169 31.8576 20.9633 31.5107 20.8971 31.1268C20.9727 31.0785 21.068 31.0785 21.1497 31.1124C21.2944 31.1665 21.4174 31.2621 21.5525 31.3349C21.721 31.4316 21.8916 31.5279 22.04 31.6541C22.1337 31.7368 22.2255 31.8297 22.2686 31.9494C22.3161 32.0778 22.2912 32.2185 22.2545 32.3467C22.21 32.5021 22.1475 32.6555 22.1408 32.8188C22.135 32.9242 22.2308 33.0057 22.2238 33.1118C22.2223 33.1585 22.187 33.1929 22.1553 33.2234C22.2065 33.2215 22.275 33.2437 22.2699 33.3068C22.2486 33.4781 22.1345 33.6371 22.1659 33.8142C22.1974 33.8377 22.2245 33.7993 22.2466 33.7812C22.2167 33.9474 22.2172 34.1173 22.2278 34.2853C22.2564 34.6931 22.3447 35.0931 22.4047 35.4968C22.4618 35.8817 22.526 36.3044 22.4208 36.6845C22.2531 37.2903 22.1403 37.891 22.0054 38.5024C21.9122 38.9244 21.7953 39.3409 21.6684 39.7541C21.5656 40.0889 21.4561 40.4217 21.347 40.7546C21.1363 41.2466 21.0193 41.8413 20.5439 42.1602C20.0869 42.4832 19.6156 42.786 19.1504 43.0969C18.9671 43.2322 18.7528 43.2858 18.5329 43.3231C18.2077 43.3783 17.9287 43.5869 17.7961 43.8855C17.6932 44.1175 17.6125 44.3581 17.5838 44.6122C17.7998 44.3004 17.9004 44.2852 18.0327 44.1011C18.1213 43.918 18.3208 43.8365 18.5009 43.7681C18.673 43.8375 18.7086 44.1232 18.9336 44.085C19.3804 44.1061 19.6044 43.6493 19.9596 43.4612C19.8018 43.8375 19.5799 44.1826 19.3774 44.5358C19.3193 44.6351 19.2507 44.7281 19.1789 44.819C18.8423 45.2453 18.6642 45.773 18.6664 46.3138C18.6674 46.5433 18.6756 46.7731 18.6821 47.0018L18.7931 46.6472C18.9336 46.109 18.9325 45.7975 19.3458 45.3668C19.5698 45.4332 19.8303 45.561 20.0421 45.389C20.4146 45.2109 20.3037 44.6867 20.6701 44.5005C21.0742 44.2631 21.1893 43.7892 21.4753 43.4541C21.968 43.6201 22.3894 44.0649 22.9533 43.9391C23.0134 43.7902 23.0734 43.6413 23.1304 43.4914C23.5742 43.4139 24.1371 43.5155 24.3183 43.9793C24.4751 44.25 24.4639 44.6716 24.8049 44.7923C24.81 44.0619 24.527 43.1684 23.7575 42.9168C23.4093 42.7549 23.0582 43.0074 22.707 42.9873C22.4515 42.777 22.1105 42.5516 22.1634 42.1733C22.1807 41.47 22.0555 40.7395 22.2998 40.0624C22.4157 39.6602 22.5861 39.2759 22.7549 38.8934C22.8364 38.7085 22.9182 38.5237 22.9948 38.3368C23.0683 38.1576 23.1284 37.9734 23.1828 37.7876C23.2461 37.5721 23.3211 37.36 23.4074 37.1525C23.4781 36.9826 23.6137 36.8383 23.7219 36.6883C23.9606 36.3573 24.1916 36.0188 24.3734 35.6534C24.5212 35.3672 24.6272 35.0616 24.7053 34.7504C24.7494 34.7704 24.7742 34.8121 24.7984 34.8519C24.8216 34.8902 24.8696 34.902 24.9126 34.8997C24.8979 34.1338 24.7539 33.379 24.6779 32.6183C24.7195 32.6622 24.7619 32.7163 24.8254 32.7283C24.8878 32.7179 24.8871 32.6381 24.8982 32.5901C24.9499 32.639 25.0027 32.6926 25.0723 32.7166C25.1043 32.7283 25.1413 32.718 25.1586 32.6877C25.0511 32.6291 24.9532 32.5431 24.8944 32.436C24.9476 32.4384 24.9885 32.4791 25.031 32.5076C25.061 32.5047 25.0909 32.4977 25.1202 32.4884C25.1246 32.4662 25.12 32.4449 25.101 32.4324C25.0501 32.3863 24.9785 32.3552 24.9585 32.2845C25.0519 32.2732 25.1038 32.3741 25.1889 32.3896C25.2239 32.3981 25.2505 32.3702 25.2701 32.3455C25.1368 32.1332 24.8747 32.064 24.6939 31.9027C24.645 31.8594 24.5991 31.8006 24.6066 31.7323C24.6863 31.7223 24.7453 31.7887 24.8207 31.7985C24.8653 31.7971 24.8676 31.743 24.8718 31.7102C24.8366 31.6962 24.7783 31.6632 24.8023 31.6198C24.8293 31.6097 24.8579 31.6198 24.886 31.6226C24.9046 31.5948 24.92 31.5555 24.8899 31.5298C24.8204 31.4562 24.6791 31.4236 24.6799 31.3041C24.7988 31.2288 24.9344 31.1795 25.0749 31.1627C25.263 31.142 25.4524 31.1711 25.6344 31.2187C25.9223 31.2871 26.1832 31.4308 26.4479 31.5574C26.6225 31.6475 26.8045 31.7229 26.9767 31.8181C27.1511 31.9136 27.323 32.0148 27.5052 32.0961C27.6178 32.1435 27.7389 32.1928 27.864 32.1741C27.9686 32.1562 28.0416 32.0715 28.0997 31.9903C28.1795 31.8739 28.2515 31.751 28.3506 31.649C28.5591 31.4229 28.8396 31.2705 29.1358 31.1882C29.5343 31.0774 29.9543 31.0742 30.364 31.1103C31.1156 31.1808 31.8445 31.3851 32.5702 31.5814C32.9877 31.6957 33.4152 31.7677 33.8395 31.8526C34.1807 31.9206 34.5149 32.0183 34.8485 32.1159C35.5443 32.3202 36.2465 32.5476 36.9784 32.5684C37.3647 32.578 37.7554 32.5163 38.1111 32.3635C38.5217 32.555 38.972 32.6415 39.3872 32.8219C39.6805 32.9464 39.9105 33.1769 40.1996 33.3095C40.3464 33.379 40.509 33.4154 40.672 33.4141C40.7178 33.4108 40.749 33.3656 40.7531 33.3233C40.7619 33.2817 40.7462 33.2316 40.7804 33.1989C41.1647 33.3973 41.5506 33.5927 41.9306 33.799C42.2586 33.9827 42.5681 34.2001 42.9132 34.3534C43.0566 34.3261 43.0848 34.1663 43.1552 34.0639C43.5588 34.2765 43.8897 34.5997 44.2937 34.8121C44.5845 34.9681 44.9249 35.0475 45.2545 34.9923C45.308 34.8666 45.3295 34.7262 45.411 34.6134C45.5273 34.7224 45.6639 34.808 45.8041 34.8837C46.0574 35.0176 46.3334 35.1268 46.6235 35.1395C46.771 35.1431 46.9348 35.1025 47.0253 34.9781C47.1281 34.8303 47.1248 34.6405 47.1026 34.4701C47.3844 34.6328 47.6644 34.7984 47.946 34.9614C48.1379 34.864 48.3625 34.8321 48.5737 34.879C48.7855 34.9224 48.9823 35.0142 49.1851 35.0858C49.3707 35.1532 49.5639 35.2043 49.762 35.2172C49.8009 35.2247 49.8166 35.18 49.8288 35.1521C49.8615 35.0293 49.8274 34.8997 49.8604 34.7771C49.869 34.7486 49.881 34.7159 49.9108 34.7032C50.0455 34.7161 50.1732 34.7641 50.3031 34.7992C50.445 34.8387 50.6017 34.8612 50.7424 34.8044C50.716 34.726 50.6825 34.6503 50.6384 34.5808C50.5074 34.3697 50.3 34.219 50.0848 34.0999C49.813 33.9498 49.5213 33.8392 49.2503 33.688C48.3219 33.1999 47.3707 32.7543 46.4596 32.2341C46.2028 32.0889 45.954 31.9299 45.6888 31.8C45.357 31.6293 45.0158 31.4743 44.7013 31.2732C44.5782 31.195 44.4628 31.1062 44.346 31.0197C42.5106 29.6591 40.6615 28.315 38.7621 27.0426C40.2907 27.2902 41.8106 27.5912 43.318 27.943C44.7103 28.2702 46.0936 28.6368 47.46 29.0581C48.1655 29.2778 48.8764 29.5055 49.6163 29.5782C49.67 29.5917 49.721 29.5445 49.7354 29.4962C49.7552 29.4171 49.7259 29.3396 49.7144 29.2617C49.724 29.2525 49.7281 29.2485 49.7376 29.2394C50.1268 29.2959 50.4911 29.4478 50.8587 29.5788C51.1743 29.6931 51.5049 29.7812 51.8434 29.7788C51.8946 29.6152 51.8855 29.4352 51.8286 29.2744Z" fill="black"/>
</svg>
