<svg width="52" height="47" viewBox="0 0 52 47" fill="none" xmlns="http://www.w3.org/2000/svg">
<path d="M51.7056 28.2762C51.6513 28.1206 51.558 27.9819 51.4528 27.8559C51.2427 27.6068 50.9894 27.3978 50.7291 27.2021C50.4832 27.0206 50.2347 26.8391 49.9582 26.7049C49.6705 26.5598 49.3696 26.443 49.0777 26.3076C48.1732 25.898 47.2244 25.5942 46.2697 25.3224C44.807 24.9086 43.3217 24.5784 41.8607 24.1589C41.4722 24.0485 41.0742 23.9742 40.6886 23.8544C40.0938 23.6765 39.5825 23.3166 39.0621 22.9932C38.7672 22.8051 38.4516 22.6504 38.1275 22.5178C37.7873 22.3761 37.4397 22.2521 37.1063 22.0952C37.445 22.0226 37.7852 21.9334 38.0927 21.7713C37.949 21.5503 37.8483 21.3066 37.7391 21.0683C37.6293 20.8273 37.5012 20.5877 37.3063 20.4029C37.3315 20.3391 37.4303 20.2785 37.3766 20.2049C37.1988 20.0129 37.0749 19.7816 36.9431 19.5585C36.8188 19.3406 36.6649 19.1395 36.4807 18.9676C36.0219 18.5319 35.4656 18.2131 34.8978 17.9374C34.2949 17.648 33.669 17.409 33.0416 17.1775C32.3518 16.9247 31.6474 16.7009 30.9931 16.3641C30.4386 16.0838 29.907 15.7446 29.3058 15.5667C28.8831 15.4431 28.4391 15.4322 28.003 15.3966C27.6748 15.3687 27.3388 15.3426 27.0318 15.2154C26.7487 15.0993 26.5106 14.8995 26.3051 14.6788C26.1018 14.4663 25.9133 14.2389 25.687 14.0492C25.4228 13.8233 25.1376 13.6237 24.8585 13.4165C24.5999 13.2278 24.3526 13.0246 24.1008 12.8274C22.428 11.5065 20.766 10.1715 19.0501 8.90545C18.8303 8.73878 18.598 8.58942 18.3719 8.43157C18.1696 8.28743 17.9612 8.14248 17.8079 7.94529C17.6529 7.72834 17.5587 7.47696 17.4266 7.24712C17.2073 6.87641 16.9721 6.51516 16.755 6.14314C16.0987 5.03509 15.5111 3.88329 14.7517 2.83824C14.3772 2.32436 13.9587 1.83857 13.4758 1.42085C13.2661 1.24161 13.0577 1.05976 12.8293 0.903707C12.569 0.725943 12.2832 0.590293 12.0018 0.449254C11.6954 0.303647 11.381 0.166039 11.0467 0.0971538C10.2326 -0.0580884 9.37562 -0.0342585 8.58391 0.219253C7.95058 0.430649 7.36101 0.749937 6.79077 1.09061C6.65122 1.16929 6.51035 1.25091 6.35429 1.29336C6.19707 1.33531 6.03457 1.30233 5.87504 1.29857C5.79791 1.29564 5.72129 1.30413 5.64466 1.31049C5.37828 1.33498 5.11372 1.37774 4.85147 1.42949C4.19386 1.56302 3.54979 1.75499 2.91745 1.97634C2.28363 2.19736 1.65657 2.46083 1.10713 2.84901C0.629037 3.18511 0.216507 3.63385 0 4.1789C0.315922 4.24632 0.635643 4.2966 0.956521 4.33496C0.956521 4.33496 2.35199 4.46 2.81671 4.4915C3.64079 4.54994 4.46899 4.61214 5.27655 4.79398C5.31008 4.80133 5.34492 4.80819 5.37482 4.82647C5.53269 4.91413 5.66299 5.04259 5.77232 5.18379C5.95282 5.42 6.0823 5.68999 6.18436 5.96717C6.30574 6.30116 6.38748 6.64902 6.42976 7.00144C6.52971 7.81202 6.31237 8.63125 6.46261 9.43871C6.47148 9.43821 6.46893 9.43835 6.4778 9.43785C6.48985 9.26001 6.51031 9.07316 6.60184 8.91605C6.60613 9.00322 6.56468 9.08762 6.57756 9.17462C6.58037 9.2138 6.64164 9.23894 6.66988 9.21184C6.71084 9.014 6.7437 8.80946 6.84015 8.62876C6.89712 9.65079 6.76848 10.673 6.58533 11.6772C6.60382 11.6578 6.63107 11.6034 6.66328 11.632C6.67467 11.6664 6.6603 11.7035 6.65832 11.7391C6.58054 12.3316 6.39426 12.9185 6.4471 13.5216C6.51877 13.4054 6.50193 13.2441 6.60878 13.1454C6.63916 13.2797 6.64213 13.418 6.65716 13.5545C6.67252 13.6744 6.69019 13.8073 6.7792 13.8984C6.80728 13.8264 6.80959 13.7347 6.87862 13.6862C6.88375 13.8013 6.86161 13.9147 6.84857 14.0287C6.83701 14.1323 6.82511 14.243 6.8735 14.34C6.91181 14.3042 6.91495 14.2453 6.94931 14.2066C6.9929 14.2118 6.98151 14.2982 7.0223 14.3001C7.08109 14.2249 7.06623 14.1002 7.16185 14.0536C7.16367 14.2781 7.14632 14.5045 7.17737 14.728C7.18596 14.7831 7.2038 14.8768 7.28208 14.8545C7.34813 15.2556 7.52864 15.6398 7.50849 16.0531C7.50222 16.2133 7.43665 16.3641 7.4284 16.5237C7.38315 17.2329 7.53938 17.946 7.83168 18.5925C8.04703 19.0804 8.37435 19.5108 8.73536 19.9024C8.90463 20.0828 9.0706 20.2684 9.26762 20.4206C9.55992 20.6559 9.89319 20.8567 10.1102 21.1695C10.2765 21.4037 10.4083 21.6597 10.5629 21.9013C10.7587 22.2036 10.9609 22.5022 11.1815 22.7875C11.4071 23.0755 11.6391 23.3585 11.8668 23.6448C12.2543 24.1345 12.6463 24.6267 12.9408 25.1786C13.28 25.8054 13.5454 26.467 13.842 27.1135C14.2586 28.006 14.6642 28.9089 14.9298 29.8585C15.3451 31.3451 15.6766 32.8553 15.8952 34.3828C15.9428 34.7494 16.0202 35.1113 16.0805 35.476C16.1156 35.7023 16.1476 35.9329 16.1519 36.163C16.1553 36.3439 16.0882 36.5193 15.9621 36.6505C15.3238 37.3141 14.6718 37.9657 13.9829 38.5776C13.8107 38.7411 13.5882 38.8306 13.3943 38.9639C13.2102 39.0972 13.1984 39.3677 13.0153 39.4981C12.5713 39.6207 12.1048 39.5895 11.649 39.6217C11.3655 39.6217 11.0662 39.6684 10.7975 39.5584C10.4185 39.4193 10.0947 39.1342 9.68322 39.0894C9.193 39.0875 8.77563 39.4835 8.71952 39.9583C8.98728 39.6635 9.34755 39.3736 9.7787 39.4709C9.9362 39.4728 10.1469 39.644 10.0002 39.7958C9.72161 40.1276 9.52868 40.5363 9.56018 40.979C9.79544 40.7445 9.96081 40.4545 10.1961 40.222C10.2581 40.3611 10.2955 40.5207 10.4185 40.6248C10.7139 40.6676 11.0121 40.4536 11.2976 40.5985C11.52 40.6812 11.7583 40.5947 11.9837 40.5742C11.9837 40.5742 12.01 40.5707 12.0503 40.566C12.2471 40.5431 12.4455 40.6006 12.5974 40.7264C12.6452 40.766 12.6946 40.8036 12.7485 40.835C13.0586 40.8564 13.3736 40.8379 13.6797 40.7854C13.9485 40.7299 14.1217 40.4253 14.4151 40.4643C15.1583 40.5441 15.9133 40.6783 16.6594 40.5635C16.8934 40.4105 16.9813 40.1536 16.9803 39.8907C16.98 39.8091 17.032 39.7362 17.111 39.7125C17.2983 39.6561 17.4882 39.6246 17.6871 39.7443C18.0054 39.9358 17.8899 40.3845 18.2344 40.4876C18.2482 40.2064 18.2053 40.032 18.1187 39.7605C17.9651 39.4754 17.6763 39.2169 17.3632 39.1916C16.8632 39.1206 16.436 39.4387 15.9654 39.5448C15.6465 39.6294 15.2163 39.8104 14.9574 39.5098C14.8551 39.2441 14.9978 38.9775 15.1779 38.7839C15.8254 38.0069 16.5914 37.2507 17.3376 36.557C17.406 36.4934 17.4686 36.4241 17.5247 36.3496C17.7113 36.102 17.887 35.8471 18.0248 35.5685C18.1455 35.3291 18.2238 35.07 18.2593 34.8049C18.3826 33.9611 18.2315 33.1131 18.1954 32.2688C18.3686 32.3921 18.4147 32.6281 18.6031 32.7357C18.5955 32.6982 18.5881 32.6611 18.5904 32.6237C18.6302 32.6484 18.6532 32.6906 18.6783 32.7292C18.7263 32.8052 18.7659 32.886 18.8062 32.9667C18.8302 32.9549 18.865 32.9468 18.865 32.914C18.8548 32.8562 18.8148 32.8067 18.818 32.7466C18.8617 32.7943 18.8868 32.8565 18.9344 32.9019C18.9554 32.9283 18.9866 32.9371 19.0194 32.9254C19.0299 32.8461 18.9294 32.7964 18.9532 32.7132C19.0302 32.7853 19.0553 32.9068 19.1625 32.9474C19.1658 32.8738 19.1443 32.799 19.085 32.7517C19.0939 32.746 19.1119 32.7346 19.121 32.729C19.1653 32.776 19.1871 32.8529 19.2579 32.8689C19.1922 32.6291 19.1093 32.3931 18.9963 32.1709C18.9782 32.1342 18.938 32.0903 18.9813 32.056C19.0153 32.0974 19.0406 32.1773 19.1106 32.1507C19.1238 32.0651 19.064 31.9946 19.0186 31.9291C19.0475 31.9169 19.0759 31.9373 19.0977 31.9554C19.1805 32.0325 19.2322 32.1389 19.3253 32.206C19.3534 32.2337 19.395 32.1949 19.3889 32.1629C19.3867 32.0961 19.3497 32.038 19.3182 31.9817C19.3448 31.9744 19.3677 31.9804 19.3871 32.0002C19.447 32.054 19.4785 32.1301 19.5302 32.191C19.5742 32.1616 19.57 32.1066 19.576 32.061C19.8006 32.3433 20.0495 32.6059 20.2691 32.8922C20.2987 32.8665 20.3231 32.8327 20.3604 32.8172C20.3995 32.8038 20.4257 32.8462 20.4545 32.864C20.4675 32.8568 20.4702 32.8553 20.4832 32.8481C20.4798 32.7778 20.4125 32.7046 20.4688 32.6396C20.5084 32.6738 20.5383 32.7218 20.5893 32.7421C20.5906 32.6688 20.5905 32.5917 20.5589 32.5241C20.5469 32.4936 20.4996 32.4598 20.5411 32.4319C20.5943 32.4613 20.6337 32.5116 20.6929 32.5318C20.7137 32.4419 20.6425 32.3766 20.5708 32.3382C20.6075 32.2804 20.6617 32.3407 20.7043 32.358C20.6453 32.069 20.4925 31.8088 20.3148 31.5759C20.354 31.5323 20.4131 31.5703 20.4626 31.5659C20.4471 31.5429 20.4306 31.5214 20.422 31.4961C20.4456 31.5021 20.4722 31.5065 20.4912 31.525C20.6004 31.6195 20.6544 31.768 20.7858 31.8389C20.768 31.6603 20.6463 31.5209 20.551 31.3769C20.5617 31.3658 20.573 31.3552 20.5847 31.3451C20.6309 31.3908 20.6519 31.468 20.7221 31.4855C20.7168 31.4091 20.7095 31.3327 20.7163 31.2564C20.7634 31.2955 20.7834 31.355 20.8164 31.405C20.8397 31.3795 20.863 31.3541 20.8866 31.3291C20.8919 31.3385 20.9026 31.3573 20.9079 31.3668C20.9277 31.3479 20.9538 31.3286 20.9493 31.2979C20.9351 31.2142 20.8719 31.1427 20.8826 31.0542C20.9744 31.0955 20.9956 31.2125 21.0917 31.2483C21.0461 30.8594 20.8403 30.5126 20.7741 30.1286C20.8497 30.0803 20.945 30.0803 21.0268 30.1143C21.1714 30.1683 21.2945 30.264 21.4296 30.3368C21.598 30.4334 21.7686 30.5297 21.9171 30.6559C22.0107 30.7386 22.1025 30.8315 22.1456 30.9512C22.1932 31.0797 22.1683 31.2204 22.1316 31.3485C22.087 31.5039 22.0246 31.6574 22.0178 31.8206C22.012 31.926 22.1078 32.0075 22.1009 32.1136C22.0994 32.1603 22.0641 32.1947 22.0324 32.2253C22.0836 32.2233 22.1521 32.2455 22.147 32.3087C22.1257 32.4799 22.0116 32.6389 22.0429 32.816C22.0745 32.8395 22.1016 32.8012 22.1237 32.783C22.0938 32.9492 22.0943 33.1191 22.1049 33.2871C22.1334 33.6949 22.2218 34.095 22.2817 34.4987C22.3389 34.8836 22.403 35.3062 22.2978 35.6864C22.1301 36.2921 22.0174 36.8928 21.8825 37.5042C21.7893 37.9262 21.6723 38.3427 21.5455 38.7559C21.4426 39.0907 21.3332 39.4235 21.2241 39.7564C21.0134 40.2485 20.8963 40.8431 20.421 41.162C19.9639 41.485 19.4926 41.7879 19.0274 42.0988C18.8442 42.234 18.6299 42.2877 18.41 42.325C18.0848 42.3801 17.8058 42.5887 17.6732 42.8874C17.5702 43.1193 17.4896 43.3599 17.4609 43.6141C17.6769 43.3022 17.7774 43.287 17.9098 43.1029C17.9983 42.9198 18.1978 42.8383 18.378 42.7699C18.55 42.8393 18.5857 43.1251 18.8106 43.0868C19.2575 43.108 19.4814 42.6512 19.8367 42.463C19.6789 42.8393 19.457 43.1844 19.2544 43.5376C19.1964 43.637 19.1278 43.7299 19.056 43.8208C18.7193 44.2471 18.5412 44.7748 18.5435 45.3156C18.5445 45.5452 18.5527 45.775 18.5592 46.0037L18.6701 45.6491C18.8106 45.1108 18.8096 44.7993 19.2229 44.3687C19.4468 44.4351 19.7074 44.5629 19.9191 44.3908C20.2917 44.2127 20.1807 43.6885 20.5472 43.5024C20.9513 43.2649 21.0663 42.791 21.3524 42.456C21.845 42.622 22.2664 43.0667 22.8304 42.9409C22.8904 42.792 22.9505 42.6431 23.0075 42.4932C23.4513 42.4157 24.0142 42.5173 24.1954 42.9812C24.3521 43.2518 24.341 43.6734 24.6819 43.7942C24.687 43.0637 24.4041 42.1702 23.6345 41.9187C23.2864 41.7567 22.9352 42.0092 22.584 41.9891C22.3285 41.7788 21.9875 41.5534 22.0405 41.1751C22.0578 40.4718 21.9326 39.7414 22.1769 39.0642C22.2928 38.6621 22.4632 38.2778 22.6319 37.8952C22.7134 37.7104 22.7952 37.5256 22.8719 37.3387C22.9453 37.1594 23.0054 36.9752 23.0599 36.7895C23.1231 36.5739 23.1981 36.3618 23.2845 36.1543C23.3552 35.9844 23.4908 35.8402 23.599 35.6901C23.8377 35.3591 24.0686 35.0206 24.2504 34.6552C24.3982 34.3691 24.5043 34.0635 24.5824 33.7522C24.6265 33.7723 24.6512 33.8139 24.6755 33.8537C24.6986 33.8921 24.7467 33.9038 24.7896 33.9015C24.7749 33.1356 24.6309 32.3808 24.555 31.6201C24.5966 31.6641 24.639 31.7181 24.7024 31.7302C24.7649 31.7197 24.7642 31.6399 24.7753 31.5919C24.8269 31.6409 24.8798 31.6944 24.9493 31.7184C24.9814 31.7302 25.0183 31.7199 25.0357 31.6895C24.9282 31.6309 24.8303 31.5449 24.7715 31.4378C24.8246 31.4402 24.8656 31.4809 24.908 31.5095C24.9381 31.5065 24.968 31.4995 24.9972 31.4902C25.0017 31.468 24.9971 31.4468 24.9781 31.4342C24.9272 31.3882 24.8555 31.357 24.8355 31.2863C24.929 31.2751 24.9809 31.3759 25.0659 31.3914C25.1009 31.3999 25.1275 31.372 25.1472 31.3474C25.0139 31.135 24.7518 31.0658 24.571 30.9045C24.5221 30.8613 24.4762 30.8025 24.4836 30.7341C24.5634 30.7241 24.6223 30.7906 24.6978 30.8004C24.7424 30.7989 24.7447 30.7449 24.7488 30.712C24.7137 30.698 24.6554 30.665 24.6793 30.6216C24.7064 30.6115 24.735 30.6216 24.763 30.6244C24.7817 30.5966 24.7971 30.5573 24.767 30.5317C24.6975 30.4581 24.5561 30.4254 24.5569 30.3059C24.6758 30.2307 24.8114 30.1814 24.952 30.1646C25.1401 30.1438 25.3295 30.1729 25.5115 30.2205C25.7993 30.2889 26.0603 30.4326 26.325 30.5593C26.4995 30.6494 26.6815 30.7248 26.8538 30.82C27.0282 30.9155 27.2001 31.0167 27.3822 31.0979C27.4949 31.1453 27.6159 31.1946 27.7411 31.176C27.8456 31.158 27.9186 31.0733 27.9768 30.9922C28.0565 30.8758 28.1285 30.7529 28.2276 30.6508C28.4362 30.4248 28.7166 30.2723 29.0129 30.19C29.4114 30.0792 29.8313 30.0761 30.2411 30.1122C30.9926 30.1827 31.7216 30.3869 32.4472 30.5833C32.8647 30.6975 33.2923 30.7695 33.7165 30.8544C34.0577 30.9225 34.392 31.0201 34.7256 31.1177C35.4213 31.3221 36.1235 31.5495 36.8555 31.5702C37.2417 31.5798 37.6325 31.5181 37.9882 31.3653C38.3987 31.5568 38.8491 31.6433 39.2643 31.8237C39.5576 31.9483 39.7876 32.1787 40.0766 32.3113C40.2234 32.3808 40.3861 32.4172 40.5491 32.4159C40.5948 32.4127 40.626 32.3674 40.6302 32.3252C40.6389 32.2835 40.6232 32.2334 40.6574 32.2008C41.0417 32.3991 41.4277 32.5945 41.8077 32.8008C42.1356 32.9845 42.4451 33.2019 42.7903 33.3552C42.9336 33.3279 42.9619 33.1681 43.0322 33.0658C43.4358 33.2783 43.7668 33.6015 44.1707 33.8139C44.4615 33.97 44.8019 34.0493 45.1315 33.9941C45.185 33.8684 45.2065 33.728 45.2881 33.6152C45.4044 33.7243 45.5409 33.8098 45.6811 33.8856C45.9345 34.0194 46.2104 34.1286 46.5006 34.1413C46.6481 34.1449 46.8119 34.1043 46.9024 33.9799C47.0051 33.8322 47.0018 33.6423 46.9797 33.4719C47.2614 33.6347 47.5415 33.8002 47.8231 33.9633C48.015 33.8658 48.2396 33.834 48.4508 33.8808C48.6625 33.9242 48.8594 34.016 49.0622 34.0876C49.2478 34.1551 49.441 34.2062 49.639 34.2191C49.678 34.2266 49.6937 34.1818 49.7059 34.1539C49.7386 34.0312 49.7044 33.9016 49.7374 33.779C49.746 33.7504 49.7581 33.7177 49.7878 33.705C49.9226 33.7179 50.0502 33.7659 50.1802 33.801C50.3221 33.8405 50.4788 33.863 50.6195 33.8062C50.5931 33.7279 50.5595 33.6521 50.5154 33.5826C50.3845 33.3715 50.1771 33.2209 49.9619 33.1017C49.6901 32.9517 49.3984 32.841 49.1274 32.6898C48.199 32.2018 47.2477 31.7561 46.3366 31.2359C46.0798 31.0908 45.8311 30.9318 45.5659 30.8018C45.2341 30.6311 44.8929 30.4762 44.5783 30.2751C44.4553 30.1969 44.3398 30.1081 44.2231 30.0216C42.3877 28.661 40.5385 27.3169 38.6392 26.0444C40.1678 26.2921 41.6876 26.5931 43.1951 26.9449C44.5874 27.272 45.9707 27.6386 47.3371 28.0599C48.0426 28.2797 48.7535 28.5074 49.4934 28.58C49.547 28.5936 49.5981 28.5464 49.6124 28.4981C49.6322 28.4189 49.6029 28.3414 49.5915 28.2635C49.601 28.2543 49.6051 28.2504 49.6147 28.2412C50.0039 28.2978 50.3682 28.4496 50.7358 28.5807C51.0513 28.6949 51.382 28.7831 51.7205 28.7806C51.7717 28.617 51.7626 28.437 51.7056 28.2762Z" fill="white"/>
</svg>
